<?xml version="1.0" encoding="utf-8"?>
<!-- Generator: Adobe Illustrator 27.5.0, SVG Export Plug-In . SVG Version: 6.00 Build 0)  -->
<svg version="1.1" id="_x31_" xmlns="http://www.w3.org/2000/svg" xmlns:xlink="http://www.w3.org/1999/xlink" x="0px" y="0px"
	 viewBox="0 0 500 500" style="enable-background:new 0 0 500 500;" xml:space="preserve">
<style type="text/css">
	.st0{fill:none;}
</style>
<g>
	<rect x="0" y="0" class="st0" width="500" height="500"/>
</g>
<g>
	<path d="M280.4,260.9c-0.6,2.5-1.9,7.3-2.7,9.1c-1.4,0.3-5.7,1.4-9.4,1.4c-14.3,0-20.4-9.7-20.4-20.3c0-11.9,8.1-20.6,21.1-20.6
		c4.4,0,8.5,1.1,9.8,1.2c0.1,3.1,0.5,6.7,0.8,9.2c-0.3,0.1-0.7,0.2-1,0.2c-1.1-4.3-2.5-6.6-5.6-8.1c-1.5-0.8-3.1-1.1-5.4-1.1
		c-8.3,0-11.9,8.1-11.9,18c0,11.6,5,19.9,13.2,19.9c5.2,0,8.1-3.4,10.6-9.4C279.8,260.6,280.1,260.8,280.4,260.9
		C280.4,260.9,280.4,260.9,280.4,260.9z"/>
	<path d="M220.8,266.3C220.9,266.3,220.9,266.3,220.8,266.3c-1.4-1.4-2.5-3.2-3.4-4.9c-1.9-3.6-3.7-7.2-5.6-10.8
		c2.8-1.3,7-4.1,7-9.8c0-3.1-1.2-5.5-3.3-7.1c-2.3-1.7-5.5-2.3-10-2.3c-5,0-9.9,0-14.9,0c0,0.3,0,0.6,0,1c4.1,0.7,4.4,1.4,4.4,6.4
		c0,8.1,0,16.2,0,24.2c0,5.2-0.3,5.5-4.4,6.5c0,0.3,0,0.6,0,1c5.2,0,10.5,0,15.7,0c0-0.3,0-0.6,0-1c-4.1-1-4.4-1.4-4.4-6.5
		c0-3.5,0-7.1,0-10.6c0.3,0,0.5,0,0.8,0c1.9,0,3.3,2.1,3.9,3.2c1.9,3.7,3.9,7.5,5.9,11.2c1.1,2.2,3.4,3.6,5.9,3.6c2.9,0,5.8,0,8.7,0
		c0-0.3,0-0.6,0-1C224.4,269.1,222.2,267.9,220.8,266.3z M209.3,249.5C209.3,249.5,209.3,249.5,209.3,249.5
		c-1.3,1.4-3.3,1.6-5.9,1.6c0,0,0,0,0,0c-0.5,0-1,0-1.6,0c0-5.3,0-10.6,0-15.9c0-1.2,0.2-1.6,0.6-1.9c0.3-0.3,1.6-0.4,2.7-0.4
		c3.2,0,6.4,2.5,6.4,9.4C211.5,245.8,210.9,247.9,209.3,249.5z"/>
	<path d="M94.8,271c0,0.3,0,0.6,0,1c6.6-0.1,14.7-5.9,14.5-12.6c-0.1-4.6-2.8-7.6-6.3-10.2c-1.5-1.1-2.9-2-4.5-2.9
		c-0.8-0.4-1.6-0.8-2.4-1.2c-0.8-0.4-1.6-0.8-2.4-1.2c-1.5-0.8-3.1-1.7-4.3-3.1c-1.2-1.4-1.8-3.1-1.8-4.9c0.1-5.9,7.1-6.9,7.1-6.9
		c0-0.3,0-0.6,0-1c-6.7,0.4-13.5,5.3-13.6,11.3c0,1.7,0.4,3.4,1.1,4.8c0.7,1.5,1.8,2.8,3,4c1.2,1.2,2.6,2.1,4,2.9
		c1.4,0.9,2.9,1.6,4.4,2.4c6.2,3.4,8.8,5.4,8.8,9.6C102.6,269.6,95.4,271,94.8,271z"/>
	<rect x="82.6" y="259.7" transform="matrix(0.7071 -0.7071 0.7071 0.7071 -160.9332 137.9992)" width="7" height="7"/>
	<rect x="99.9" y="233.3" transform="matrix(0.7071 -0.7071 0.7071 0.7071 -137.138 142.4946)" width="7" height="7"/>
	<path d="M125.5,233c-2.8,0-3.5,0.3-4.4,1.5c-1.4,1.7-1.8,3.4-2.4,5.7c-0.3,0-0.6-0.1-0.9-0.1c0.1-2.9,0.2-5.7,0.3-8.6
		c10.3,0,20.5,0,30.8,0c0.1,2.9,0.2,5.7,0.3,8.6c-0.3,0-0.6,0.1-0.9,0.1c-0.7-2.4-1.1-4-2.4-5.7c-0.9-1.2-1.6-1.5-4.4-1.5
		c-1.5,0-3,0-4.5,0c0,10,0,20.1,0,30.1c0,5.2,0.6,5.7,4.9,6.5c0,0.3,0,0.6,0,1c-2.8,0-5.5,0-8.3,0s-5.5,0-8.3,0c0-0.3,0-0.6,0-1
		c4.3-0.8,4.9-1.3,4.9-6.5c0-10,0-20.1,0-30.1C128.5,233,127,233,125.5,233z"/>
	<path d="M181.3,263.1C181.3,263.1,181.3,263.1,181.3,263.1c-3.6-10.8-7.1-21.6-10.7-32.3c-3.2,0-6.3,0-9.5,0c0,0.3,0,0.6,0,1
		c1.4,0,2.7,0.9,3.1,2.3c0.4,1.1,0.7,2.2,1.1,3.3c-2.8,8.5-5.5,17-8.3,25.5c-1.8,5.4-2.7,6.1-6.3,6.8c0,0.3,0,0.6,0,1c4,0,8,0,12,0
		c0-0.3,0-0.6,0-1c-4.7-1-5.2-1.5-3.9-5.5c0.8-2.5,1.7-5.1,2.5-7.6c3.4,0,6.9,0,10.3,0c0.9,2.8,1.9,5.7,2.8,8.5
		c1,3.1,0.9,3.8-2.9,4.7c0,0.3,0,0.6,0,1c5.1,0,10.2,0,15.3,0c0-0.3,0-0.6,0-1C183.5,268.8,183.2,268.9,181.3,263.1z M162,254.4
		l4.5-13.8l4.6,13.8H162z"/>
	<path d="M416.4,240c-1.2-5-3.8-8-8.1-8c-3.3,0-5.2,2.5-5.2,6.3c0,3.9,1.9,5.6,6.7,8.7c4.8,3.1,9,6.3,9,12.6
		c0,6.9-5.4,11.9-12.7,11.9c-2.7,0-5.3-0.6-8.4-1.4c-0.3-1.1-1.2-8.2-1.2-9.2c0.3-0.1,0.6-0.1,0.9-0.2c1.2,5.2,4.5,9.4,9.6,9.4
		c3.8,0,5.5-2.8,5.5-6.9c0-3.8-2-6.5-6-9.1c-5-3.3-9-6.4-9-12.5c0-6.1,4.5-11,11.9-11c3.4,0,5.9,0.7,7,0.8c0.2,2.2,0.6,5.5,0.9,8.4
		C417,239.9,416.7,239.9,416.4,240C416.4,240,416.4,240,416.4,240z"/>
	<path d="M378.4,248.7c3.9-0.9,8.6-3.3,8.6-8.8c0-2.8-1.1-4.9-3-6.4c-2-1.4-4.4-2.2-9-2.2c-5.2,0-10.3,0-15.5,0c0,0.3,0,0.6,0,1
		c3.9,0.8,4.4,1,4.4,6.2c0,8.2,0,16.3,0,24.5c0,5.2-0.5,5.7-4.4,6.4c0,0.3,0,0.6,0,1c4.5,0,9,0,13.5,0c4.2,0,8.3-0.7,11.1-2.5
		c2.9-1.8,4.9-4.8,4.9-9.2C389,253,384.4,249.8,378.4,248.7z M370.8,236.4c0-1.6,0.1-2.5,0.6-3c0.4-0.4,1.5-0.5,2.4-0.5
		c3.2,0,6.1,2.1,6.1,8.4c0,5-1.8,7.3-6.8,7.3c0,0,0,0,0,0c-0.8,0-1.5,0-2.3,0C370.8,244.5,370.8,240.4,370.8,236.4z M375.4,269
		c-3.1,0-4.6-1.4-4.6-5.5c0-4.5,0-9,0-13.5c0.7,0,1.5,0,2.2,0c6.2,0,8.4,3.3,8.4,9.3C381.4,265.7,378.8,269,375.4,269z"/>
	<path d="M354.5,232.4c-4.4,0.5-4.4,2.2-4.5,4.7c-0.1,1.8-0.2,4-0.2,8.5c0,2.4,0,4.7,0,7.1c0,6.3-0.5,11.1-3.5,14.7
		c-2.4,2.8-5.7,4.1-10.1,4.1c-3.6,0-7.1-0.8-9.7-3.2c-2.9-2.6-4-6.4-4-12.6c0-5.2,0-10.4,0-15.6c0-6.2-0.3-6.9-4.5-7.6
		c0-0.3,0-0.6,0-1c5.3,0,10.5,0,15.8,0c0,0.3,0,0.6,0,1c-4.3,0.8-4.4,1.4-4.4,7.6c0,5.5,0,10.9,0,16.4c0,7.9,3.5,11.7,9.6,11.7
		c6.6,0,9.2-3.8,9.2-15.2c0-2.4,0-4.8,0-7.3c0-4.4-0.1-6.9-0.3-8.7c-0.2-3-0.9-4-5.8-4.4c0-0.3,0-0.6,0-1c4.2,0,8.4,0,12.6,0
		C354.5,231.8,354.5,232.1,354.5,232.4C354.5,232.4,354.5,232.4,354.5,232.4z"/>
	<path d="M315,260.7c-0.5,2.8-2,8.9-2.3,9.8c-8.7,0-17.5,0-26.2,0c0-0.3,0-0.6,0-1c4.9-0.8,5.1-1.3,5.1-6.4c0-8.1,0-16.2,0-24.3
		c0-5.4-0.4-5.7-4.6-6.4c0-0.3,0-0.6,0-1c5.3,0,10.7,0,16,0c0,0.3,0,0.6,0,1c-4.2,0.8-4.5,1.3-4.5,6.4c0,8.6,0,17.2,0,25.7
		c0,3.8,0.9,4.2,3.7,4.2c1.1,0,2.2,0,3.3,0c3,0,3.8-0.5,5.2-1.9c1.2-1.2,2.4-3.8,3.4-6.3C314.5,260.5,314.7,260.6,315,260.7
		C315,260.7,315,260.7,315,260.7z"/>
</g>
</svg>
